<?xml version="1.0" encoding="utf-8"?>
<svg xmlns="http://www.w3.org/2000/svg" xmlns:xlink="http://www.w3.org/1999/xlink" version= "1.1" width="1080px" height="1776px" viewBox="0 0 1080 1776">
<g id="layer1" opacity="0.0">
<g style="fill:rgb(58,254,255); fill-opacity:1.0; stroke-linejoin: miter">
<path d="M1075.934,892.54675L1071.1283,965.02264Q1036.6772,1184.0692,868.6232,1315.542Q699.40515,1446.9099,469.89633,1422.3322Q250.84964,1387.8807,119.377,1219.8267Q77.25124,1165.5034,49.951622,1101.4216L26.995464,1035.5356Q8.064239,967.5276,7.780822,893.5752Q13.289047,666.62085,163.84395,515.77527Q314.3989,364.92972,541.34216,358.98413Q768.29663,364.49252,919.1424,515.04785Q1069.9882,665.6033,1075.934,892.54675"/>
</g>
</g>
<g id="layer2">
<g style="fill:rgb(234,245,250); fill-opacity:1.0; stroke-linejoin: miter">
<path d="M300.79575,467.661L551.8829,468.4259L802.96924,469.19083L800.4315,1303.2168L298.25763,1301.6923L300.79575,467.661"/>
</g>
<g style="fill:rgb(12,41,53); fill-opacity:1.0; stroke-linejoin: miter">
<path d="M311.17438,478.10303L308.69962,1291.3136L308.69962,1291.3136L790.0529,1292.7749L790.0529,1292.7749L792.5273,479.56943L792.5273,479.56943L551.85114,478.8362L311.17438,478.10303 Z M790.0529,1292.7749L790.0529,1292.7749L790.0529,1292.7749L790.0529,1292.7749 Z"/>
</g>
<g style="fill:rgb(234,245,250); fill-opacity:1.0; stroke-linejoin: miter">
<path d="M306.2915,470.25308L553.3581,470.2535L800.42474,470.25394Q800.42474,515.9925,800.42474,561.7311L306.2915,561.732L306.2915,470.25308"/>
</g>
<g style="fill:rgb(234,245,250); fill-opacity:1.0; stroke-linejoin: miter">
<path d="M305.71658,1294.5137L550.70306,1294.514L795.6896,1294.5143L795.6896,1213.6787L305.71658,1213.6793Q305.71658,1254.0966,305.71658,1294.5137"/>
</g>
<g style="fill:url(#grad0); fill-opacity:1.0; stroke-linejoin: miter">
<path d="M480.20908,512.5716L480.0222,515.34973Q478.69345,523.7453,472.2465,528.77893Q465.75485,533.8085,456.95786,532.85785Q448.5623,531.5291,443.52866,525.08215Q441.9158,522.99817,440.87167,520.5407L439.9941,518.01416Q439.2709,515.4065,439.2628,512.5716Q439.48233,503.87186,445.25925,498.09497Q451.03616,492.31805,459.73593,492.09854Q468.43576,492.31805,474.21262,498.09497Q479.98953,503.87186,480.20908,512.5716"/>
</g>
<g style="fill:rgb(121,130,134); fill-opacity:1.0; stroke-linejoin: miter">
<path d="M495.64908,507.85837L543.08093,507.8586L590.5128,507.8589L590.5128,524.1273L495.64908,524.1278L495.64908,507.85837"/>
</g>
<g style="fill:rgb(175,217,236); fill-opacity:1.0; stroke-linejoin: miter">
<path d="M582.046,1262.3687L582.046,1262.3687C582.046,1282.5242,564.6214,1298.5446,543.53345,1298.5446L543.53345,1298.5446C522.44543,1298.5446,505.02084,1282.5242,505.02084,1262.3687L505.02084,1262.3687C505.02084,1242.2136,522.44543,1226.1929,543.53345,1226.1929L543.53345,1226.1929C564.62134,1226.1929,582.046,1242.2136,582.046,1262.3687L582.046,1262.3687 M576.43207,1262.3687L576.43207,1262.3687C576.43207,1245.6659,561.8848,1231.8069,543.53345,1231.8069L543.53345,1231.8069C525.182,1231.8069,510.63477,1245.6659,510.63477,1262.3687L510.63477,1262.3687C510.63477,1279.0719,525.182,1292.9307,543.53345,1292.9307L543.53345,1292.9307C561.8849,1292.9307,576.43207,1279.0719,576.43207,1262.3687 Z"/>
</g>
<g>
<g style="fill:rgb(234,245,250); fill-opacity:1.0; stroke-linejoin: miter">
<path d="M346.76706,635.4053Q349.70703,635.4053,351.95282,637.0386Q354.1986,638.6311,355.75024,641.6118Q357.30185,644.5926,358.1185,648.8392Q358.89432,653.08563,358.89432,658.3531Q358.89432,663.57965,358.07767,667.7038Q357.30188,671.8278,355.75024,674.7269Q354.19858,677.5852,351.9528,679.13684Q349.707,680.6477,346.76703,680.6477Q343.86795,680.6477,341.70383,679.09595Q339.53973,677.58527,338.06976,674.6861Q336.6406,671.8278,335.9056,667.7038Q335.17062,663.57965,335.17062,658.3531Q335.17062,653.08575,335.9056,648.8392Q336.6406,644.5926,338.11057,641.6119Q339.53973,638.63104,341.70383,636.9977Q343.86795,635.4053,346.76706,635.4053 Z M491.9267,635.4052Q494.86655,635.40533,497.11234,637.03864Q499.35812,638.63104,500.90976,641.6119Q502.4614,644.5926,503.27805,648.8392Q504.0538,653.0857,504.0538,658.353Q504.0538,663.5796,503.2372,667.7038Q502.4614,671.8278,500.90976,674.727Q499.35812,677.58527,497.11234,679.1369Q494.86655,680.64764,491.92664,680.64764Q489.02747,680.64764,486.86334,679.096Q484.69922,677.58514,483.22925,674.6861Q481.80017,671.8279,481.0652,667.70386Q480.3302,663.5797,480.3302,658.35315Q480.3302,653.0857,481.0652,648.83923Q481.80017,644.59265,483.27008,641.61176Q484.69928,638.63104,486.86334,636.99774Q489.02747,635.4052,491.9267,635.4052 Z M396.3786,630.2605L380.53555,634.8336L380.53555,640.46844L393.80615,637.202L393.80615,679.831L381.02554,679.831L381.02554,685.79254L414.30405,685.7926L414.30405,679.83105L401.80927,679.83093L401.8093,630.2604 Z M444.76508,630.2604L428.92206,634.8337L428.92206,640.46857L442.19263,637.2019L442.19263,679.8309L429.41205,679.831L429.41205,685.79254L462.6905,685.7925L462.6905,679.83093L450.19574,679.831L450.1958,630.2604 Z M541.538,630.26044L525.695,634.83356L525.695,640.46844L538.96564,637.20197L538.9656,679.83093L526.185,679.83093L526.185,685.7925L559.46344,685.79254L559.46344,679.831L546.9686,679.831L546.9686,630.2604 Z M589.92444,630.2603L574.08154,634.8336L574.0815,640.4685L587.352,637.2019L587.352,679.831L574.5715,679.8309L574.5715,685.7924L607.85,685.7925L607.85,679.83093L595.35516,679.83093L595.35516,630.26044 Z M346.76706,629.4437Q341.94882,629.4437,338.27393,631.4854Q334.63983,633.52704,332.14902,637.3244Q329.69907,641.081,328.43326,646.43Q327.16742,651.7791,327.16742,658.3531Q327.16742,664.9681,328.43326,670.2354Q329.69907,675.462,332.18985,679.096Q334.6398,682.73016,338.31476,684.6901Q341.94882,686.60913,346.76706,686.60925Q351.66696,686.60925,355.42358,684.6493Q359.18015,682.73016,361.7526,679.096Q364.2842,675.462,365.59085,670.19464Q366.8975,664.9681,366.8975,658.3531Q366.8975,651.7791,365.59085,646.43Q364.2842,641.081,361.7118,637.2836Q359.18018,633.5269,355.42358,631.48535Q351.667,629.4437,346.76706,629.4437 Z M491.9267,629.44366Q487.10834,629.44366,483.43347,631.4853Q479.79938,633.52704,477.3086,637.3245Q474.85864,641.08093,473.59283,646.42993Q472.32703,651.77905,472.32703,658.353Q472.32703,664.968,473.59283,670.23535Q474.85864,675.4619,477.34943,679.09607Q479.79938,682.7302,483.47424,684.6901Q487.10834,686.6092,491.92664,686.6092Q496.8265,686.6092,500.5831,684.64935Q504.33963,682.73004,506.91208,679.0959Q509.4437,675.46185,510.7504,670.1946Q512.057,664.968,512.057,658.35315Q512.057,651.77905,510.7504,646.42993Q509.4437,641.08093,506.87125,637.28357Q504.33963,633.527,500.5831,631.4854Q496.8265,629.4438,491.9267,629.44366 Z M346.76703,719.0302Q349.70697,719.0302,351.95276,720.6635Q354.19855,722.2559,355.75024,725.23676Q357.30188,728.21747,358.1185,732.46405Q358.89432,736.71063,358.89432,741.97797Q358.89432,747.2045,358.07767,751.3287Q357.30188,755.4527,355.75024,758.35187Q354.19855,761.21014,351.95276,762.7618Q349.70697,764.2725,346.76703,764.2725Q343.86795,764.2726,341.70383,762.72095Q339.5397,761.2101,338.06973,758.31104Q336.6406,755.45276,335.9056,751.3286Q335.17062,747.2046,335.17062,741.978Q335.1706,736.7106,335.9056,732.4641Q336.6406,728.2175,338.11057,725.2367Q339.5397,722.25586,341.70383,720.6227Q343.86795,719.0303,346.76703,719.0302 Z M395.1536,719.03015Q398.09354,719.03015,400.3393,720.66345Q402.58508,722.25586,404.13672,725.2367Q405.6884,728.2175,406.50504,732.4641Q407.28085,736.7106,407.28085,741.978Q407.28085,747.2046,406.4642,751.3286Q405.6884,755.45276,404.13675,758.3518Q402.58508,761.2101,400.3393,762.7617Q398.09354,764.2726,395.1536,764.2726Q392.25446,764.27246,390.0903,762.7208Q387.9262,761.2101,386.4563,758.311Q385.02716,755.4527,384.29218,751.3287Q383.55713,747.2045,383.55713,741.97797Q383.55713,736.71063,384.29214,732.46405Q385.02716,728.21747,386.4971,725.23676Q387.9262,722.25586,390.0903,720.62256Q392.25446,719.03015,395.1536,719.03015 Z M443.5401,719.0301Q446.48004,719.0302,448.72583,720.6635Q450.97162,722.25586,452.5232,725.2367Q454.0749,728.21735,454.89154,732.4639Q455.66736,736.7105,455.66736,741.97784Q455.66736,747.2044,454.85065,751.32855Q454.0749,755.4526,452.5232,758.35175Q450.97162,761.21,448.7259,762.7618Q446.48004,764.2725,443.5401,764.2725Q440.641,764.2725,438.47687,762.7209Q436.31274,761.21,434.8428,758.311Q433.41367,755.4527,432.67868,751.32855Q431.9437,747.2045,431.9437,741.97797Q431.9437,736.7105,432.67868,732.46405Q433.41367,728.21747,434.88364,725.23663Q436.31274,722.2558,438.47687,720.6226Q440.641,719.0301,443.5401,719.0301 Z M637.0859,719.03Q640.02576,719.03,642.2715,720.66327Q644.5173,722.2557,646.069,725.23663Q647.6206,728.21735,648.43726,732.4639Q649.2131,736.71045,649.2131,741.9778Q649.2131,747.20435,648.3964,751.3285Q647.6206,755.4525,646.069,758.3517Q644.5173,761.20984,642.2715,762.7615Q640.02576,764.2724,637.0859,764.2724Q634.18677,764.2724,632.0227,762.72076Q629.8585,761.2099,628.38855,758.3107Q626.9594,755.45245,626.2244,751.3284Q625.4895,747.20435,625.48944,741.9778Q625.48944,736.71045,626.2244,732.46387Q626.9594,728.2173,628.4294,725.2366Q629.8585,722.25574,632.0227,720.62256Q634.18677,719.03,637.0859,719.03 Z M493.15155,713.8852L477.30853,718.4585L477.30853,724.09326L490.57916,720.82666L490.57916,763.4558L477.79852,763.4558L477.79852,769.4173L511.07706,769.41736L511.07706,763.4558L498.58224,763.4558L498.58224,713.8852 Z M541.5379,713.88513L525.695,718.45844L525.695,724.0932L538.96545,720.82666L538.96545,763.45575L526.185,763.45575L526.185,769.41724L559.4634,769.4172L559.4634,763.4557L546.9687,763.45575L546.9686,713.88525 Z M589.92444,713.8852L574.0815,718.45844L574.0815,724.09326L587.352,720.8266L587.352,763.4557L574.5715,763.4558L574.5715,769.4173L607.8499,769.41724L607.8499,763.45575L595.35516,763.4558L595.35516,713.8852 Z M686.6972,713.88513L670.85425,718.4584L670.85425,724.0932L684.1247,720.82654L684.12476,763.4556L671.34424,763.4557L671.34424,769.41724L704.62256,769.4172L704.62256,763.4556L692.1279,763.4556L692.1279,713.88513 Z M346.76703,713.06866Q341.94882,713.0686,338.2739,715.1102Q334.63977,717.15186,332.149,720.9492Q329.69907,724.7059,328.43326,730.055Q327.16745,735.404,327.16745,741.9781Q327.16745,748.59296,328.43326,753.8604Q329.69907,759.087,332.18982,762.72095Q334.6398,766.355,338.31473,768.31494Q341.94882,770.23413,346.76703,770.234Q351.66693,770.234,355.42358,768.27405Q359.18015,766.35504,361.7526,762.721Q364.28424,759.087,365.59088,753.8195Q366.89746,748.59283,366.89746,741.97797Q366.89746,735.4039,365.59088,730.055Q364.2842,724.7059,361.71176,720.9085Q359.18015,717.1519,355.42355,715.1103Q351.66693,713.06866,346.76703,713.06866 Z M395.1536,713.0686Q390.33533,713.0686,386.66046,715.1103Q383.02634,717.1519,380.53555,720.9493Q378.0856,724.7059,376.8198,730.0549Q375.554,735.4039,375.554,741.97797Q375.554,748.59283,376.8198,753.8603Q378.0856,759.08685,380.5764,762.7209Q383.02634,766.35504,386.7013,768.315Q390.33533,770.23395,395.1536,770.2341Q400.0535,770.2341,403.8101,768.2741Q407.56668,766.355,410.1391,762.7208Q412.67072,759.0868,413.9774,753.81946Q415.28403,748.5929,415.28403,741.9779Q415.28403,735.40393,413.97736,730.0548Q412.67072,724.7058,410.09827,720.9083Q407.56668,717.15186,403.81006,715.1102Q400.0535,713.0686,395.1536,713.0686 Z M443.5401,713.06854Q438.72186,713.06854,435.04697,715.11017Q431.41287,717.1518,428.92206,720.9492Q426.4721,724.7058,425.20633,730.0548Q423.9405,735.40393,423.94052,741.9779Q423.94052,748.5929,425.20633,753.8602Q426.4721,759.0868,428.96295,762.72095Q431.41287,766.3549,435.0878,768.3148Q438.72186,770.234,443.5401,770.234Q448.44006,770.234,452.19653,768.274Q455.9532,766.3549,458.52563,762.72076Q461.0572,759.08685,462.36383,753.8194Q463.67047,748.59283,463.67047,741.97797Q463.67047,735.4039,462.36383,730.0549Q461.0572,724.7058,458.48474,720.9083Q455.9532,717.15186,452.19653,715.1102Q448.44,713.06866,443.5401,713.06854 Z M637.0859,713.06854Q632.26764,713.06854,628.5928,715.1101Q624.95856,717.15173,622.4678,720.9491Q620.0179,724.7057,618.75214,730.05475Q617.4863,735.4039,617.4863,741.97784Q617.4863,748.59283,618.75214,753.86017Q620.0179,759.0866,622.5086,762.72064Q624.9586,766.3548,628.6336,768.31476Q632.26764,770.23395,637.0859,770.23395Q641.98566,770.2338,645.7423,768.27386Q649.4989,766.35486,652.07135,762.7207Q654.60297,759.0867,655.9096,753.81934Q657.21625,748.5928,657.21625,741.9778Q657.21625,735.4038,655.9096,730.05475Q654.60297,724.70575,652.0305,720.90826Q649.4989,717.1518,645.74225,715.11017Q641.98566,713.0684,637.0859,713.06854 Z M443.5401,802.655Q446.48004,802.655,448.7259,804.2883Q450.97162,805.8807,452.5232,808.8615Q454.0749,811.8423,454.89154,816.08875Q455.66736,820.3353,455.66736,825.6028Q455.66736,830.82935,454.85065,834.95337Q454.0749,839.0775,452.5232,841.97656Q450.97162,844.83484,448.7259,846.3866Q446.4801,847.89746,443.5401,847.89734Q440.641,847.89734,438.47687,846.3457Q436.31274,844.83496,434.8428,841.9358Q433.41367,839.0775,432.67868,834.9535Q431.9437,830.82935,431.9437,825.6028Q431.9437,820.33545,432.67868,816.08887Q433.41367,811.8423,434.88364,808.86145Q436.31274,805.88074,438.47687,804.24744Q440.641,802.655,443.5401,802.655 Z M491.92664,802.65497Q494.86652,802.65497,497.11227,804.28815Q499.35806,805.8807,500.9097,808.8614Q502.46133,811.8422,503.27798,816.0888Q504.0538,820.3354,504.0538,825.6027Q504.0538,830.8293,503.23715,834.9534Q502.46133,839.07745,500.9097,841.9766Q499.35806,844.8349,497.11227,846.38654Q494.86652,847.8973,491.92664,847.89734Q489.02753,847.89734,486.8634,846.3457Q484.69928,844.83484,483.22925,841.9358Q481.8001,839.0776,481.06512,834.9534Q480.33014,830.8294,480.33014,825.60284Q480.33014,820.3354,481.06512,816.0888Q481.8001,811.84235,483.27008,808.8615Q484.69922,805.8807,486.8634,804.2475Q489.02753,802.65497,491.92664,802.65497 Z M347.992,797.51013L332.149,802.0835L332.149,807.71826L345.4196,804.4518L345.4196,847.08093L332.639,847.0808L332.639,853.04236L365.91754,853.04236L365.91754,847.0808L353.4228,847.0808L353.4228,797.51013 Z M396.37854,797.5102L380.53555,802.08344L380.53555,807.7183L393.80612,804.4516L393.80612,847.08075L381.02554,847.0809L381.02554,853.0424L414.30405,853.0423L414.30405,847.08075L401.8093,847.08075L401.80927,797.5102 Z M541.5379,797.51L525.69507,802.08325L525.69507,807.71814L538.96545,804.4514L538.96545,847.0805L526.18506,847.0806L526.18506,853.0422L559.4634,853.0421L559.4634,847.08057L546.9687,847.0806L546.9687,797.51 Z M589.92444,797.50995L574.0815,802.0833L574.0815,807.7181L587.352,804.4515L587.352,847.08057L574.5715,847.08057L574.5715,853.0421L607.8499,853.042L607.8499,847.08044L595.35516,847.08057L595.35516,797.5101 Z M443.5401,796.6935Q438.72186,796.6935,435.04697,798.7351Q431.41287,800.77673,428.92212,804.5742Q426.4721,808.3307,425.20633,813.6798Q423.94052,819.0288,423.94052,825.6029Q423.94052,832.2177,425.20633,837.48505Q426.47217,842.7116,428.96295,846.34576Q431.41287,849.97986,435.0878,851.9398Q438.72186,853.8589,443.5401,853.8589Q448.44006,853.859,452.19653,851.8989Q455.9532,849.97974,458.52563,846.3457Q461.0572,842.7117,462.36383,837.4442Q463.67047,832.21765,463.67047,825.6028Q463.67047,819.0288,462.36383,813.6797Q461.0572,808.33075,458.48474,804.53326Q455.9532,800.7767,452.19653,798.73505Q448.44006,796.6935,443.5401,796.6935 Z M491.92664,796.6934Q487.1084,796.6934,483.4334,798.73505Q479.79932,800.7767,477.30853,804.57404Q474.85858,808.3306,473.59277,813.6796Q472.32697,819.02875,472.32697,825.6027Q472.32697,832.2176,473.59277,837.48505Q474.85858,842.71155,477.34937,846.3457Q479.79932,849.97974,483.47424,851.9397Q487.1084,853.8589,491.92664,853.8589Q496.82645,853.8588,500.58304,851.89886Q504.3397,849.9798,506.91214,846.34564Q509.44376,842.7116,510.7504,837.44415Q512.057,832.2177,512.057,825.60284Q512.057,819.02875,510.7504,813.6796Q509.44376,808.3306,506.8713,804.53314Q504.33963,800.7767,500.58304,798.7351Q496.82645,796.6935,491.92664,796.6934 Z"/>
</g>
</g>
</g>
<defs>
<radialGradient id="grad0" gradientUnits="userSpaceOnUse" cx="480.20908" cy="512.5716" r="32.75699" >
<stop offset="0.0%" style="stop-color:rgb(95,112,101); stop-opacity:1.0" />
<stop offset="50.0%" style="stop-color:rgb(10,35,45); stop-opacity:1.0" />
<stop offset="100.0%" style="stop-color:rgb(20,22,43); stop-opacity:1.0" />
</radialGradient>
</defs>
</svg>